<svg width="20" height="20" viewBox="0 0 20 20" fill="none" xmlns="http://www.w3.org/2000/svg">
<path fill-rule="evenodd" clip-rule="evenodd" d="M7.08331 11.25C7.42849 11.25 7.70831 11.5298 7.70831 11.875C7.70831 13.1298 8.74516 14.1667 9.99998 14.1667C11.2548 14.1667 12.2916 13.1298 12.2916 11.875C12.2916 11.5298 12.5715 11.25 12.9166 11.25C13.2618 11.25 13.5416 11.5298 13.5416 11.875C13.5416 13.8202 11.9452 15.4167 9.99998 15.4167C8.0548 15.4167 6.45831 13.8202 6.45831 11.875C6.45831 11.5298 6.73814 11.25 7.08331 11.25Z" fill="#D1D1D1"/>
<path fill-rule="evenodd" clip-rule="evenodd" d="M7.78301 1.22444C8.02742 1.46818 8.02797 1.86391 7.78423 2.10832L4.76756 5.13332C4.52382 5.37774 4.12809 5.37828 3.88368 5.13454C3.63927 4.8908 3.63872 4.49507 3.88246 4.25066L6.89913 1.22566C7.14287 0.981246 7.5386 0.980701 7.78301 1.22444Z" fill="#D1D1D1"/>
<path fill-rule="evenodd" clip-rule="evenodd" d="M12.217 1.22444C12.4614 0.9807 12.8571 0.981246 13.1009 1.22566L16.1175 4.25066C16.3613 4.49507 16.3607 4.8908 16.1163 5.13454C15.8719 5.37828 15.4762 5.37774 15.2324 5.13332L12.2158 2.10832C11.972 1.86391 11.9726 1.46818 12.217 1.22444Z" fill="#D1D1D1"/>
<path fill-rule="evenodd" clip-rule="evenodd" d="M2.55512 5.64949C2.46654 5.70882 2.29169 5.87342 2.29169 6.54167C2.29169 7.37447 2.4862 7.48629 2.51871 7.50497L2.5194 7.50537C2.56806 7.53342 2.65847 7.56314 2.84101 7.57655C2.98018 7.58678 3.1236 7.5857 3.30172 7.58437C3.36804 7.58387 3.43917 7.58333 3.51669 7.58333H16.4834C16.5609 7.58333 16.632 7.58387 16.6983 7.58437C16.8764 7.5857 17.0199 7.58678 17.159 7.57655C17.3416 7.56314 17.432 7.53342 17.4806 7.50537L17.4813 7.50497C17.5138 7.48629 17.7084 7.37447 17.7084 6.54167C17.7084 5.87342 17.5335 5.70882 17.4449 5.64949C17.2891 5.54513 17.015 5.5 16.4834 5.5H3.51669C2.98499 5.5 2.71094 5.54513 2.55512 5.64949ZM1.85951 4.61092C2.37243 4.26737 3.02338 4.25 3.51669 4.25H16.4834C16.9767 4.25 17.6276 4.26737 18.1405 4.61092C18.7207 4.99951 18.9584 5.66825 18.9584 6.54167C18.9584 7.49443 18.7432 8.22045 18.1048 8.58838C17.8191 8.75304 17.5111 8.80405 17.2506 8.82319C17.0563 8.83747 16.8401 8.83576 16.6474 8.83422C16.5903 8.83377 16.5352 8.83333 16.4834 8.83333H3.51669C3.46484 8.83333 3.40978 8.83377 3.35266 8.83422C3.1599 8.83576 2.94377 8.83747 2.7494 8.82319C2.48897 8.80405 2.18094 8.75304 1.89523 8.58838C1.25681 8.22045 1.04169 7.49443 1.04169 6.54167C1.04169 5.66825 1.27933 4.99951 1.85951 4.61092Z" fill="#D1D1D1"/>
<path fill-rule="evenodd" clip-rule="evenodd" d="M17.201 7.71931C17.54 7.78432 17.7622 8.11184 17.6971 8.45084L16.2972 15.7507C16.1498 16.5204 15.9572 17.3735 15.3573 18.0021C14.7307 18.6587 13.7825 18.9581 12.4083 18.9581H7.38333C6.09014 18.9581 5.14734 18.6351 4.49902 17.9785C3.86832 17.3398 3.61443 16.4802 3.47499 15.6348L2.29982 8.43379C2.24422 8.09312 2.47532 7.77188 2.816 7.71628C3.15667 7.66069 3.4779 7.89179 3.5335 8.23246L4.70833 15.4314C4.7083 15.4312 4.70836 15.4316 4.70833 15.4314C4.83556 16.2024 5.03592 16.7432 5.38847 17.1002C5.72348 17.4395 6.29318 17.7081 7.38333 17.7081H12.4083C13.6258 17.7081 14.1651 17.4408 14.4531 17.1391C14.7678 16.8094 14.9169 16.3125 15.0695 15.5156L16.4695 8.21541C16.5345 7.87641 16.862 7.6543 17.201 7.71931Z" fill="#D1D1D1"/>
</svg>
