<svg width="20" height="20" viewBox="0 0 20 20" fill="none" xmlns="http://www.w3.org/2000/svg">
<path d="M12.8174 0.5625C12.9072 0.476006 13.0352 0.484609 13.1064 0.555664L16.4863 3.93652L16.6328 4.08203H17.2402C17.7024 4.08203 18.2627 4.09148 18.7119 4.33984C18.9229 4.45652 19.1108 4.62886 19.251 4.89551C19.3936 5.16695 19.5 5.56234 19.5 6.14258C19.5 6.92631 19.3496 7.38336 19.1631 7.6543C18.9855 7.91214 18.7368 8.05554 18.4043 8.13477C18.1738 8.18311 17.9249 8.20215 17.6396 8.20215H2.36035C2.06471 8.20215 1.80526 8.19178 1.57715 8.13672L1.57031 8.13477L1.39746 8.08594C1.2881 8.04802 1.19059 7.99899 1.10352 7.93457L0.980469 7.82617L0.973633 7.81934L0.87207 7.70312C0.645687 7.40896 0.500009 6.942 0.5 6.14258C0.5 5.56226 0.606298 5.16686 0.749023 4.89551C0.889231 4.62897 1.0775 4.45657 1.28906 4.33984C1.73947 4.09143 2.30219 4.08204 2.76953 4.08203H3.37793L3.52441 3.93555L6.89062 0.558594C6.9778 0.478064 7.09867 0.485818 7.16992 0.550781C7.25597 0.640584 7.2477 0.767709 7.17676 0.838867L4.78613 3.22852L3.93262 4.08203H16.0674L15.2139 3.22852L12.8291 0.844727C12.7457 0.757516 12.752 0.63463 12.8174 0.5625Z" fill="white" stroke="white"/>
<path d="M2.87048 10.5024H17.0502C17.365 10.5025 17.5996 10.7852 17.5394 11.0972L16.5287 16.3276V16.3286C16.3493 17.2702 16.1279 18.0351 15.6185 18.5796C15.1295 19.1023 14.293 19.5024 12.6898 19.5024H7.08044C5.5222 19.5024 4.65095 19.0441 4.1283 18.4634C3.65513 17.9374 3.41365 17.2531 3.2699 16.5327L3.21326 16.2222L2.37341 11.0815C2.32374 10.7785 2.5563 10.5024 2.87048 10.5024ZM13.5004 12.0024C12.8142 12.0024 12.2504 12.5663 12.2504 13.2524C12.2504 14.4962 11.2441 15.5023 10.0004 15.5024C8.75651 15.5024 7.75037 14.4963 7.75037 13.2524C7.75037 12.5664 7.18636 12.0026 6.50037 12.0024C5.81422 12.0024 5.25037 12.5663 5.25037 13.2524C5.25037 15.8686 7.38422 18.0024 10.0004 18.0024C12.6164 18.0023 14.7504 15.8685 14.7504 13.2524C14.7504 12.5664 14.1864 12.0026 13.5004 12.0024Z" fill="white" stroke="white"/>
</svg>
