<svg width="21" height="23" viewBox="0 0 21 23" fill="none" xmlns="http://www.w3.org/2000/svg">
<path fill-rule="evenodd" clip-rule="evenodd" d="M5.75 0C6.16421 0 6.5 0.335786 6.5 0.75V3.75C6.5 4.16421 6.16421 4.5 5.75 4.5C5.33579 4.5 5 4.16421 5 3.75V0.75C5 0.335786 5.33579 0 5.75 0Z" fill="white"/>
<path fill-rule="evenodd" clip-rule="evenodd" d="M13.75 0C14.1642 0 14.5 0.335786 14.5 0.75V3.75C14.5 4.16421 14.1642 4.5 13.75 4.5C13.3358 4.5 13 4.16421 13 3.75V0.75C13 0.335786 13.3358 0 13.75 0Z" fill="white"/>
<path fill-rule="evenodd" clip-rule="evenodd" d="M0.5 7.83984C0.5 7.42563 0.835786 7.08984 1.25 7.08984H18.25C18.6642 7.08984 19 7.42563 19 7.83984C19 8.25406 18.6642 8.58984 18.25 8.58984H1.25C0.835786 8.58984 0.5 8.25406 0.5 7.83984Z" fill="white"/>
<path fill-rule="evenodd" clip-rule="evenodd" d="M15.75 14.5C13.9542 14.5 12.5 15.9542 12.5 17.75C12.5 18.3594 12.6705 18.9333 12.9684 19.4163L12.9778 19.4321C13.1448 19.7184 13.359 19.9716 13.602 20.1754C13.6086 20.181 13.6152 20.1867 13.6217 20.1925C14.1855 20.6999 14.9273 21 15.75 21C16.9359 21 17.9656 20.3677 18.5254 19.4266L18.5315 19.4163L18.5316 19.4163C18.8295 18.9333 19 18.3594 19 17.75C19 16.9333 18.6939 16.1864 18.1859 15.6043C17.591 14.9284 16.723 14.5 15.75 14.5ZM11 17.75C11 15.1258 13.1258 13 15.75 13C17.1765 13 18.4481 13.6311 19.3132 14.6147L19.3149 14.6167L19.3149 14.6167C20.0465 15.4544 20.5 16.5471 20.5 17.75C20.5 18.6385 20.2517 19.4827 19.8115 20.1986C18.9906 21.5746 17.482 22.5 15.75 22.5C14.5573 22.5 13.463 22.0634 12.628 21.3162C12.2575 21.0035 11.9369 20.6225 11.6868 20.1959C11.2477 19.4805 11 18.6374 11 17.75Z" fill="white"/>
<path fill-rule="evenodd" clip-rule="evenodd" d="M17.8606 16.2608C18.1419 16.5649 18.1233 17.0394 17.8192 17.3206L15.6892 19.2906C15.3935 19.5642 14.9345 19.5552 14.6497 19.2704L13.6597 18.2804C13.3668 17.9875 13.3668 17.5126 13.6597 17.2197C13.9526 16.9268 14.4274 16.9268 14.7203 17.2197L15.2003 17.6997L16.8008 16.2194C17.1048 15.9382 17.5794 15.9567 17.8606 16.2608Z" fill="white"/>
<path fill-rule="evenodd" clip-rule="evenodd" d="M2.4871 4.13534C1.84637 4.82535 1.5 5.86497 1.5 7.25V15.75C1.5 17.135 1.84637 18.1746 2.4871 18.8647C3.11848 19.5446 4.14295 20 5.75 20H11.5731C11.2052 19.3287 11 18.5577 11 17.75C11 15.1258 13.1258 13 15.75 13C16.5665 13 17.3322 13.2068 18 13.568V7.25C18 5.86497 17.6536 4.82535 17.0129 4.13534C16.3815 3.45538 15.357 3 13.75 3H5.75C4.14295 3 3.11848 3.45538 2.4871 4.13534ZM1.3879 3.11466C2.38152 2.04462 3.85705 1.5 5.75 1.5H13.75C15.643 1.5 17.1185 2.04462 18.1121 3.11466C19.0964 4.17465 19.5 5.63503 19.5 7.25V15.11C19.5 15.4221 19.3067 15.7016 19.0147 15.8117C18.7227 15.9219 18.393 15.8397 18.1868 15.6053C17.5919 14.9288 16.7235 14.5 15.75 14.5C13.9542 14.5 12.5 15.9542 12.5 17.75C12.5 18.3594 12.6705 18.9333 12.9684 19.4163L12.9778 19.4321C13.1448 19.7184 13.359 19.9716 13.602 20.1754C13.8436 20.378 13.9326 20.7101 13.8248 21.0064C13.717 21.3028 13.4353 21.5 13.12 21.5H5.75C3.85705 21.5 2.38152 20.9554 1.3879 19.8853C0.403634 18.8254 0 17.365 0 15.75V7.25C0 5.63503 0.403634 4.17465 1.3879 3.11466Z" fill="white"/>
<path fill-rule="evenodd" clip-rule="evenodd" d="M8.74548 12.4502C8.74548 11.8979 9.1932 11.4502 9.74548 11.4502H9.75447C10.3068 11.4502 10.7545 11.8979 10.7545 12.4502C10.7545 13.0025 10.3068 13.4502 9.75447 13.4502H9.74548C9.1932 13.4502 8.74548 13.0025 8.74548 12.4502Z" fill="white"/>
<path fill-rule="evenodd" clip-rule="evenodd" d="M5.04431 12.4502C5.04431 11.8979 5.49203 11.4502 6.04431 11.4502H6.05329C6.60558 11.4502 7.05329 11.8979 7.05329 12.4502C7.05329 13.0025 6.60558 13.4502 6.05329 13.4502H6.04431C5.49203 13.4502 5.04431 13.0025 5.04431 12.4502Z" fill="white"/>
<path fill-rule="evenodd" clip-rule="evenodd" d="M5.04431 15.4502C5.04431 14.8979 5.49203 14.4502 6.04431 14.4502H6.05329C6.60558 14.4502 7.05329 14.8979 7.05329 15.4502C7.05329 16.0025 6.60558 16.4502 6.05329 16.4502H6.04431C5.49203 16.4502 5.04431 16.0025 5.04431 15.4502Z" fill="white"/>
</svg>
