<svg width="24" height="24" viewBox="0 0 24 24" fill="none" xmlns="http://www.w3.org/2000/svg">
<path fill-rule="evenodd" clip-rule="evenodd" d="M12 2.75C6.89421 2.75 2.75 6.89421 2.75 12C2.75 17.1058 6.89421 21.25 12 21.25C17.1058 21.25 21.25 17.1058 21.25 12C21.25 6.89421 17.1058 2.75 12 2.75ZM1.25 12C1.25 6.06579 6.06579 1.25 12 1.25C17.9342 1.25 22.75 6.06579 22.75 12C22.75 17.9342 17.9342 22.75 12 22.75C6.06579 22.75 1.25 17.9342 1.25 12Z" fill="white"/>
<path fill-rule="evenodd" clip-rule="evenodd" d="M11.63 6.75977C12.0442 6.75977 12.38 7.09555 12.38 7.50977V11.6098C12.38 11.7633 12.4386 11.9859 12.569 12.2145C12.6994 12.4431 12.861 12.6067 12.9924 12.6845L12.9943 12.6857L12.9943 12.6857L16.0943 14.5357C16.45 14.748 16.5663 15.2084 16.354 15.5641C16.1418 15.9198 15.6814 16.0361 15.3257 15.8238L12.2277 13.975C12.2273 13.9748 12.227 13.9746 12.2266 13.9744C11.8184 13.7322 11.4904 13.3511 11.266 12.9576C11.0414 12.5637 10.88 12.0862 10.88 11.6098V7.50977C10.88 7.09555 11.2158 6.75977 11.63 6.75977Z" fill="white"/>
</svg>
