<svg width="40" height="40" viewBox="0 0 40 40" fill="none" xmlns="http://www.w3.org/2000/svg">
<path d="M11.6666 34.6665H28.3336C28.7407 34.6667 29.0836 35.0094 29.0836 35.4165C29.0836 35.8236 28.7407 36.1663 28.3336 36.1665H11.6666C11.2594 36.1665 10.9166 35.8237 10.9166 35.4165C10.9166 35.0093 11.2594 34.6665 11.6666 34.6665Z" fill="#FFB743" stroke="#FFB743"/>
<path d="M18.9196 4.97217C19.2925 3.9592 20.7244 3.95916 21.0973 4.97217L21.0983 4.9751L24.2487 13.3755V13.3765C24.748 14.7006 26.3905 15.1975 27.5406 14.3735L34.2076 9.60693L34.2096 9.60498C35.1294 8.9419 36.3597 9.86112 35.9635 10.9448L35.9625 10.9487L29.0289 30.3647C28.8665 30.8164 28.4215 31.1333 27.9332 31.1333H12.0504C11.556 31.1333 11.1166 30.8274 10.9557 30.3677L10.9537 30.3647L4.02112 10.9487C3.65026 9.90202 4.79437 8.99073 5.72424 9.53564L5.81311 9.59326L12.4703 14.3521V14.353C13.6265 15.2036 15.2559 14.6958 15.7526 13.3569L15.7516 13.356L18.9176 4.97705L18.9196 4.97217ZM15.8336 21.5835C14.8741 21.5835 14.0836 22.374 14.0836 23.3335C14.0838 24.2929 14.8742 25.0835 15.8336 25.0835H24.1666C25.126 25.0835 25.9165 24.2929 25.9166 23.3335C25.9166 22.374 25.1261 21.5835 24.1666 21.5835H15.8336Z" fill="#FFB743" stroke="#FFB743"/>
</svg>
