<svg width="13" height="14" viewBox="0 0 13 14" fill="none" xmlns="http://www.w3.org/2000/svg">
<path d="M11.6667 6.66569V10.6657C11.6667 12.139 10.4733 13.3324 9 13.3324H3.66667C2.19333 13.3324 1 12.139 1 10.6657V6.66569C1 6.29902 1.3 5.99902 1.66667 5.99902H2.98C3.34667 5.99902 3.64667 6.29902 3.64667 6.66569V8.75902C3.64667 9.25236 3.92 9.70569 4.35333 9.93902C4.54667 10.0457 4.76 10.099 4.98 10.099C5.23333 10.099 5.48667 10.0257 5.70667 9.87902L6.34 9.46569L6.92667 9.85902C7.33333 10.1324 7.85333 10.1657 8.28667 9.93236C8.72667 9.69902 9 9.25236 9 8.75236V6.66569C9 6.29902 9.3 5.99902 9.66667 5.99902H11C11.3667 5.99902 11.6667 6.29902 11.6667 6.66569Z" fill="#D1D1D1"/>
<path d="M12.6667 3.33236V3.99902C12.6667 4.73236 12.3133 5.33236 11.3333 5.33236H1.33333C0.313333 5.33236 0 4.73236 0 3.99902V3.33236C0 2.59902 0.313333 1.99902 1.33333 1.99902H11.3333C12.3133 1.99902 12.6667 2.59902 12.6667 3.33236Z" fill="#D1D1D1"/>
<path d="M6.09331 1.99833H2.41331C2.18665 1.75167 2.19331 1.37167 2.43331 1.13167L3.37998 0.185C3.62665 -0.0616667 4.03331 -0.0616667 4.27998 0.185L6.09331 1.99833Z" fill="#D1D1D1"/>
<path d="M10.2467 1.99833H6.56665L8.37998 0.185C8.62665 -0.0616667 9.03332 -0.0616667 9.27998 0.185L10.2267 1.13167C10.4667 1.37167 10.4733 1.75167 10.2467 1.99833Z" fill="#D1D1D1"/>
<path d="M7.64667 5.99902C8.01334 5.99902 8.31334 6.29902 8.31334 6.66569V8.75236C8.31334 9.28569 7.72 9.60569 7.28 9.30569L6.68 8.90569C6.46 8.75902 6.17334 8.75902 5.94667 8.90569L5.32 9.31902C4.88 9.61236 4.29333 9.29236 4.29333 8.76569V6.66569C4.29333 6.29902 4.59333 5.99902 4.96 5.99902H7.64667Z" fill="#D1D1D1"/>
</svg>
