<svg width="22" height="22" viewBox="0 0 22 22" fill="none" xmlns="http://www.w3.org/2000/svg">
<path fill-rule="evenodd" clip-rule="evenodd" d="M10.2337 0.00153505C11.2691 -0.0227442 12.3461 0.240322 13.2001 0.838155L19.3788 5.16728C19.3786 5.16713 19.3791 5.16743 19.3788 5.16728C19.9984 5.59933 20.5207 6.26543 20.8861 6.96552C21.2517 7.6659 21.5 8.47537 21.5 9.23258V16.5126C21.5 19.2356 19.2754 21.4726 16.54 21.4726H4.96C2.22347 21.4726 0 19.2345 0 16.5026V9.09258C0 8.3821 0.224406 7.61309 0.554179 6.94097C0.883996 6.26876 1.35552 5.61943 1.91901 5.18098L7.30901 0.980979C8.13375 0.33952 9.19825 0.0258139 10.2337 0.00153505ZM8.23046 2.16459C8.23037 2.16466 8.23054 2.16453 8.23046 2.16459L2.84099 6.36418C2.50471 6.62573 2.1609 7.07161 1.90082 7.60169C1.64059 8.13207 1.5 8.67305 1.5 9.09258V16.5026C1.5 18.4107 3.05653 19.9726 4.96 19.9726H16.54C18.4446 19.9726 20 18.4095 20 16.5126V9.23258C20 8.77979 19.8433 8.20925 19.5564 7.65964C19.2695 7.10998 18.8913 6.65584 18.5212 6.39788L18.5196 6.39682L12.3399 2.067C12.3398 2.06694 12.34 2.06707 12.3399 2.067C11.794 1.68496 11.0458 1.48291 10.2688 1.50112C9.49188 1.51934 8.75571 1.75617 8.23046 2.16459Z" fill="white"/>
<path fill-rule="evenodd" clip-rule="evenodd" d="M5.5 10.7324C5.5 8.66821 7.18579 6.98242 9.25 6.98242H12.25C14.3142 6.98242 16 8.66821 16 10.7324V13.7324C16 15.7966 14.3142 17.4824 12.25 17.4824H9.25C7.18579 17.4824 5.5 15.7966 5.5 13.7324V10.7324ZM9.25 8.48242C8.01421 8.48242 7 9.49664 7 10.7324V13.7324C7 14.9682 8.01421 15.9824 9.25 15.9824H12.25C13.4858 15.9824 14.5 14.9682 14.5 13.7324V10.7324C14.5 9.49664 13.4858 8.48242 12.25 8.48242H9.25Z" fill="white"/>
<path fill-rule="evenodd" clip-rule="evenodd" d="M10.75 6.98242C11.1642 6.98242 11.5 7.31821 11.5 7.73242V16.7324C11.5 17.1466 11.1642 17.4824 10.75 17.4824C10.3358 17.4824 10 17.1466 10 16.7324V7.73242C10 7.31821 10.3358 6.98242 10.75 6.98242Z" fill="white"/>
<path fill-rule="evenodd" clip-rule="evenodd" d="M5.5 12.2324C5.5 11.8182 5.83579 11.4824 6.25 11.4824H15.25C15.6642 11.4824 16 11.8182 16 12.2324C16 12.6466 15.6642 12.9824 15.25 12.9824H6.25C5.83579 12.9824 5.5 12.6466 5.5 12.2324Z" fill="white"/>
</svg>
