<svg width="20" height="20" viewBox="0 0 20 20" fill="none" xmlns="http://www.w3.org/2000/svg">
<path d="M19.2726 16.4701L17.6226 16.8601C17.2526 16.9501 16.9626 17.2301 16.8826 17.6001L16.5326 19.0701C16.3426 19.8701 15.3226 20.1201 14.7926 19.4901L11.8026 16.0501C11.5626 15.7701 11.6926 15.3301 12.0526 15.2401C13.8226 14.8101 15.4126 13.8201 16.5826 12.4101C16.7726 12.1801 17.1126 12.1501 17.3226 12.3601L19.5426 14.5801C20.3026 15.3401 20.0326 16.2901 19.2726 16.4701Z" fill="white"/>
<path d="M0.722624 16.4701L2.37262 16.8601C2.74262 16.9501 3.03262 17.2301 3.11262 17.6001L3.46262 19.0701C3.65262 19.8701 4.67262 20.1201 5.20262 19.4901L8.19262 16.0501C8.43262 15.7701 8.30262 15.3301 7.94262 15.2401C6.17262 14.8101 4.58262 13.8201 3.41262 12.4101C3.22262 12.1801 2.88262 12.1501 2.67262 12.3601L0.452624 14.5801C-0.307376 15.3401 -0.0373763 16.2901 0.722624 16.4701Z" fill="white"/>
<path d="M10.0226 0C6.15264 0 3.02264 3.13 3.02264 7C3.02264 8.45 3.45264 9.78 4.19264 10.89C5.27264 12.49 6.98264 13.62 8.97264 13.91C9.31264 13.97 9.66264 14 10.0226 14C10.3826 14 10.7326 13.97 11.0726 13.91C13.0626 13.62 14.7726 12.49 15.8526 10.89C16.5926 9.78 17.0226 8.45 17.0226 7C17.0226 3.13 13.8926 0 10.0226 0ZM13.0826 6.78L12.2526 7.61C12.1126 7.75 12.0326 8.02 12.0826 8.22L12.3226 9.25C12.5126 10.06 12.0826 10.38 11.3626 9.95L10.3626 9.36C10.1826 9.25 9.88264 9.25 9.70264 9.36L8.70264 9.95C7.98264 10.37 7.55264 10.06 7.74264 9.25L7.98264 8.22C8.02264 8.03 7.95264 7.75 7.81264 7.61L6.96264 6.78C6.47264 6.29 6.63264 5.8 7.31264 5.69L8.38264 5.51C8.56264 5.48 8.77264 5.32 8.85264 5.16L9.44264 3.98C9.76264 3.34 10.2826 3.34 10.6026 3.98L11.1926 5.16C11.2726 5.32 11.4826 5.48 11.6726 5.51L12.7426 5.69C13.4126 5.8 13.5726 6.29 13.0826 6.78Z" fill="white"/>
</svg>
