<svg width="22" height="22" viewBox="0 0 22 22" fill="none" xmlns="http://www.w3.org/2000/svg">
<path fill-rule="evenodd" clip-rule="evenodd" d="M10.7712 1.5C7.31545 1.5 4.52124 4.29421 4.52124 7.75C4.52124 9.04761 4.90496 10.2328 5.5641 11.2222C6.531 12.6536 8.05769 13.6597 9.82939 13.9178C9.83681 13.9189 9.8442 13.9201 9.85158 13.9214C10.1468 13.9735 10.4531 14 10.7712 14C11.0894 14 11.3957 13.9735 11.6909 13.9214C11.6957 13.9206 11.7006 13.9198 11.7055 13.919C11.708 13.9186 11.7105 13.9182 11.7131 13.9178C13.4848 13.6597 15.0115 12.6536 15.9784 11.2222C16.6375 10.2328 17.0212 9.04761 17.0212 7.75C17.0212 4.29421 14.227 1.5 10.7712 1.5ZM3.02124 7.75C3.02124 3.46579 6.48703 0 10.7712 0C15.0555 0 18.5212 3.46579 18.5212 7.75C18.5212 9.35162 18.0454 10.8258 17.2253 12.056L17.2229 12.0596C16.0317 13.8243 14.1433 15.0763 11.9404 15.4005C11.5592 15.4671 11.1692 15.5 10.7712 15.5C10.3733 15.5 9.98332 15.4671 9.60204 15.4005C7.39922 15.0763 5.51078 13.8243 4.3196 12.0596L4.31719 12.056L4.3172 12.056C3.49706 10.8258 3.02124 9.35162 3.02124 7.75Z" fill="white"/>
<path fill-rule="evenodd" clip-rule="evenodd" d="M5.01297 10.9033C5.23589 10.9248 5.43756 11.0447 5.56285 11.2303C6.52969 12.6627 8.05693 13.6695 9.82937 13.9278C9.83678 13.9288 9.84418 13.93 9.85155 13.9313C10.111 13.9771 10.3791 14.0031 10.6563 14.0088C10.694 14.0029 10.7322 13.9999 10.7709 13.9999C10.8097 13.9999 10.8482 14.0029 10.8861 14.0088C11.1633 14.0031 11.4314 13.9771 11.6909 13.9313C11.6983 13.93 11.7056 13.9288 11.7131 13.9278C13.4855 13.6695 15.0127 12.6627 15.9796 11.2303C16.1049 11.0447 16.3065 10.9248 16.5295 10.9033C16.7524 10.8819 16.9732 10.9612 17.1315 11.1196L21.0295 15.0175C22.0071 15.9815 21.5131 17.6373 20.1941 17.9497L18.5485 18.3386C18.5479 18.3388 18.5473 18.3389 18.5468 18.3391C18.4365 18.3665 18.3791 18.4397 18.3643 18.5084L18.3608 18.5236L18.0109 19.9932C18.0109 19.9934 18.0109 19.9931 18.0109 19.9932C17.6779 21.394 15.8972 21.8097 14.9719 20.7182L10.7717 15.8928L6.57079 20.7279C5.64555 21.8198 3.86466 21.4046 3.53161 20.0036L3.18246 18.5372C3.18236 18.5368 3.18227 18.5364 3.18217 18.5359C3.1566 18.4329 3.07789 18.3675 3.00852 18.352L2.99869 18.3499L1.3487 17.9598C0.0201093 17.6451 -0.456277 15.9867 0.510884 15.0196L4.41088 11.1196C4.56923 10.9612 4.79006 10.8819 5.01297 10.9033ZM12.2887 15.351L16.1152 19.747C16.2511 19.9086 16.5048 19.8432 16.5515 19.6466L16.9001 18.1827C17.0477 17.5162 17.568 17.0334 18.194 16.8811L18.1987 16.88L19.8484 16.4901C20.0481 16.4428 20.0943 16.2015 19.9758 16.0851L19.9709 16.0803L16.6768 12.7862C15.5647 14.0841 14.0353 15.0114 12.2887 15.351ZM9.25516 15.3513C7.50799 15.0119 5.97805 14.0845 4.86561 12.7862L1.57154 16.0802C1.4387 16.2131 1.50266 16.4548 1.69406 16.5001L3.33955 16.889C3.98716 17.0353 4.48566 17.5483 4.63996 18.1826L4.64083 18.1862L4.99082 19.6562C5.0375 19.8527 5.29138 19.9186 5.42729 19.7571L5.43499 19.7479L9.25516 15.3513Z" fill="white"/>
<path fill-rule="evenodd" clip-rule="evenodd" d="M10.7862 5.27705L10.3021 6.2454L9.63123 5.90999M10.7862 5.27705L11.2704 6.2454L10.7862 5.27705ZM10.775 3.5C11.4013 3.5 11.8101 3.97071 12.0221 4.39459L12.5886 5.52761L13.6136 5.70004C14.0876 5.77734 14.6335 6.03588 14.8196 6.61973C15.0053 7.20246 14.7114 7.73047 14.3716 8.07033L13.5831 8.8588L13.8114 9.83872C13.8114 9.83848 13.8115 9.83897 13.8114 9.83872C13.9211 10.307 13.9476 11.0177 13.3862 11.4297C12.8239 11.8423 12.1542 11.6028 11.7385 11.355L10.7912 10.7961L9.83914 11.3578C9.42548 11.5991 8.75884 11.8347 8.19912 11.428C7.63399 11.0174 7.66141 10.3066 7.7709 9.83934C7.77086 9.83955 7.77095 9.83913 7.7709 9.83934L7.99938 8.8588L7.2109 8.07033C6.87376 7.73318 6.57581 7.20676 6.76332 6.62218C6.94977 6.04086 7.49463 5.78368 7.96089 5.7014L7.96681 5.70036L8.98298 5.52945L9.54472 4.40597C9.74367 3.97575 10.1431 3.5 10.775 3.5ZM11.2704 6.2454C11.3762 6.45696 11.5392 6.62232 11.6942 6.73687L11.2704 6.2454ZM11.6942 6.73687C11.8491 6.85135 12.058 6.96096 12.2997 7.00009L11.6942 6.73687ZM12.2997 7.00009L13.1735 7.14708L12.4809 7.83965C12.3003 8.02022 12.191 8.24528 12.1335 8.44754C12.0765 8.64828 12.0498 8.89983 12.1118 9.15466L12.2953 9.94185L11.5061 9.47626C11.2712 9.33467 11.0092 9.28748 10.7912 9.28748C10.5732 9.28748 10.3113 9.33467 10.0764 9.47625L9.2872 9.94185L9.47166 9.1502L9.47514 9.13451C9.52521 8.89667 9.50053 8.65628 9.44787 8.46098C9.39583 8.268 9.29254 8.03063 9.10156 7.83965L8.40897 7.14708L9.28453 6.99979C9.28433 6.99983 9.28473 6.99976 9.28453 6.99979" fill="white"/>
</svg>
